inDegrees=yes
name=ik_Shooting_orientations
DataType=double
version=3
OpenSimVersion=4.3-2021-08-27-4bc7ad9
endheader
time	pelvis_tilt	pelvis_list	pelvis_rotation	pelvis_tx	pelvis_ty	pelvis_tz	hip_flexion_r	hip_adduction_r	hip_rotation_r	knee_angle_r	knee_angle_r_beta	ankle_angle_r	subtalar_angle_r	mtp_angle_r	hip_flexion_l	hip_adduction_l	hip_rotation_l	knee_angle_l	knee_angle_l_beta	ankle_angle_l	subtalar_angle_l	mtp_angle_l	lumbar_extension	lumbar_bending	lumbar_rotation	arm_flex_r	arm_add_r	arm_rot_r	elbow_flex_r	pro_sup_r	wrist_flex_r	wrist_dev_r	arm_flex_l	arm_add_l	arm_rot_l	elbow_flex_l	pro_sup_l	wrist_flex_l	wrist_dev_l
5	0.7550586608083346	-0.23218595204173	152.0209264383396	0	0.9399999999999999	0	0.7044103440128253	-0.3616828996018533	0	4.385782269306054	0.07654634087497927	-0.2224016569328424	0	0	0.7044103440128253	-0.3616828996018533	0	4.385782269306054	0.07654634087497927	-0.2224016569328424	0	0	9.818931316976313	-7.650238576113549	-8.615916332483101	43.91760747262224	28.10671382727789	-21.19056442371402	0.01119446131046463	5.704601062879153	0	0	0	-0.08547920486001152	0	5.80294509521942	5.704601062879153	0	0
5.01	0.7834711391537346	-0.2294657899515875	152.0065671624815	0	0.9399999999999999	0	43.68420724966866	-10.05394944794254	0	59.9593623503555	1.046488290410029	-4.974971608370756	0	0	43.68420724966866	-10.05394944794254	0	59.9593623503555	1.046488290410029	-4.974971608370756	0	0	9.829386803211179	-7.62405215939463	-8.603384891408064	42.22801961593738	25.50903324006909	-13.83925601492606	0.011605888398515	44.87996012221741	0	0	0	-11.36904944428492	0	76.22382749509367	44.87996012221741	0	0
5.02	0.7790821067627616	-0.2433389679037479	152.0160854623841	0	0.9399999999999999	0	43.69095716386424	-10.0532621412158	0	59.95956798003095	1.046491879324906	-4.975357484852197	0	0	43.69095716386424	-10.0532621412158	0	59.95956798003095	1.046491879324906	-4.975357484852197	0	0	9.836234030185286	-7.638147566648922	-8.604121490060738	41.94022382861706	23.69822274609981	-9.233895515769545	0.01148961243970344	44.88125240783204	0	0	0	-11.38027184146578	0	76.21755040462337	44.88125240783204	0	0
5.03	0.8043130426225223	-0.2611918830191042	152.0017081272686	0	0.9399999999999999	0	43.69460259583219	-10.05288715038449	0	59.9596778999401	1.046493797789234	-4.975568388865343	0	0	43.69460259583219	-10.05288715038449	0	59.9596778999401	1.046493797789234	-4.975568388865343	0	0	9.862367422227377	-7.646111393621286	-8.570989758862245	42.21079616127407	24.12371970853651	-13.31658471289151	0.01481421051562673	44.88195622274569	0	0	0	-11.38630204050739	0	76.21416033346493	44.88195622274569	0	0
5.04	0.8252215249788855	-0.2789975158769228	152.00925027503	0	0.9399999999999999	0	43.70040216821521	-10.0523014410392	0	59.95985449649781	1.046496879980614	-4.975896239497729	0	0	43.70040216821521	-10.0523014410392	0	59.95985449649781	1.046496879980614	-4.975896239497729	0	0	9.903143475092504	-7.649981730402096	-8.564913554417918	42.63282064743078	26.32412688179117	-20.55176107430942	0.02519720014782461	44.88305987501631	0	0	0	-11.39596523815656	0	76.20876701256547	44.88305987501631	0	0
5.05	0.8133478573102454	-0.277439254483799	151.9982782539165	0	0.9399999999999999	0	43.70517057940928	-10.05180482125842	0	59.95999742377995	1.046499374532278	-4.976176513867702	0	0	43.70517057940928	-10.05180482125842	0	59.95999742377995	1.046499374532278	-4.976176513867702	0	0	9.862542335384234	-7.636702468118916	-8.538466970994262	44.06264135305544	29.29430000625739	-25.65861626910615	0.03416122217159771	44.88398932185804	0	0	0	-11.40382148608714	0	76.20433262873281	44.88398932185804	0	0
5.06	0.8190743488662351	-0.2839816155079495	152.0037991008982	0	0.9399999999999999	0	43.70753487589638	-10.05154943160503	0	59.960066682844	1.046500583330982	-4.976321877355759	0	0	43.70753487589638	-10.05154943160503	0	59.960066682844	1.046500583330982	-4.976321877355759	0	0	9.843733835796558	-7.643998213083012	-8.526472167597486	44.85719930923014	30.3892412475603	-28.6553897271716	0.04196396587176263	44.88446377115196	0	0	0	-11.40765727697236	0	76.20213395607276	44.88446377115196	0	0
5.07	0.8262611039492718	-0.2956082541635003	152.0233427330982	0	0.9399999999999999	0	43.71184302910949	-10.051106377292	0	59.96019652391221	1.046502849485127	-4.976571055363648	0	0	43.71184302910949	-10.051106377292	0	59.96019652391221	1.046502849485127	-4.976571055363648	0	0	9.857994580375243	-7.642071651084493	-8.519161584595235	43.71140119887602	31.37763341148299	-31.58859467554486	0.2712401819941358	44.88529527262953	0	0	0	-11.41479000264689	0	76.19812758618083	44.88529527262953	0	0
5.08	0.8308746017315841	-0.3007437815571757	152.0407215107774	0	0.9399999999999999	0	43.75983647464359	-10.04644501171565	0	59.96164232257443	1.046528083432104	-4.979131322444611	0	0	43.75983647464359	-10.04644501171565	0	59.96164232257443	1.046528083432104	-4.979131322444611	0	0	9.840240187117713	-7.64744214586826	-8.520146153139896	35.34602681641041	31.0482422763362	-33.20148236145148	11.12011290120791	44.89419012493691	0	0	0	-11.4950829401782	0	76.15349596928338	44.89419012493691	0	0
5.09	0.8334123718906176	-0.3029284945459773	152.0393507885465	0	0.9399999999999999	0	43.78245308844134	-10.04434760571549	0	59.96232717274828	1.04654003632252	-4.980267654869307	0	0	43.78245308844134	-10.04434760571549	0	59.96232717274828	1.04654003632252	-4.980267654869307	0	0	9.850573642621177	-7.647948201371042	-8.518559728886276	26.6705347970579	30.59963271525806	-36.38586429739531	24.24844840226007	44.89823601901133	0	0	0	-11.53349478714754	0	76.1324635529549	44.89823601901133	0	0
5.1	0.8405578167229651	-0.3161479453047867	152.0363592679124	0	0.9399999999999999	0	43.78338660663627	-10.0442092690114	0	59.96234843401743	1.04654040740167	-4.980350729834064	0	0	43.78338660663627	-10.0442092690114	0	59.96234843401743	1.04654040740167	-4.980350729834064	0	0	9.854229551949938	-7.6629844411707	-8.490278025024784	33.40623348542404	28.78330943270409	-36.03015691751275	16.00355277967823	44.89847980652265	0	0	0	-11.5347563663508	0	76.13159544667205	44.89847980652265	0	0
5.11	0.8519790904113452	-0.3179476424187793	152.0607917702701	0	0.9399999999999999	0	43.78792361925718	-10.04376643759516	0	59.96248239610797	1.046542745481223	-4.980594166488804	0	0	43.78792361925718	-10.04376643759516	0	59.96248239610797	1.046542745481223	-4.980594166488804	0	0	9.88622252943764	-7.66834952896883	-8.480994533699391	35.33064408078351	26.47255612387211	-31.42111493259579	10.69498639211692	44.89932405020488	0	0	0	-11.54232872264254	0	76.12737624169128	44.89932405020488	0	0
5.12	0.8650498836879646	-0.3151886520670508	152.0499769448839	0	0.9399999999999999	0	43.79427170271431	-10.04316255607173	0	59.96267377337665	1.046546085644675	-4.980924390960517	0	0	43.79427170271431	-10.04316255607173	0	59.96267377337665	1.046546085644675	-4.980924390960517	0	0	9.899713651351528	-7.655027780681966	-8.470586527042999	36.29415668449101	25.13755238167695	-24.84562475687334	6.113633524347623	44.90048079468044	0	0	0	-11.55305958294951	0	76.12147281771882	44.90048079468044	0	0
5.13	0.8770509319606488	-0.3229200032327076	152.0437599943687	0	0.9399999999999999	0	43.79983967124755	-10.04261199668071	0	59.96284031540906	1.046548992351483	-4.981228863229384	0	0	43.79983967124755	-10.04261199668071	0	59.96284031540906	1.046548992351483	-4.981228863229384	0	0	9.900898702993127	-7.647187725532798	-8.444604963268086	39.50022184530144	23.11203300626679	-17.51916805422828	0.2131983301449964	44.90152575148097	0	0	0	-11.56236744641864	0	76.11629487162536	44.90152575148097	0	0
5.14	0.8663070852687805	-0.3271283743228139	152.0589442200971	0	0.9399999999999999	0	43.81188952856265	-10.04155716296348	0	59.96321191748607	1.046555478031234	-4.981790653268376	0	0	43.81188952856265	-10.04155716296348	0	59.96321191748607	1.046555478031234	-4.981790653268376	0	0	9.912429520362998	-7.644795300192768	-8.423657535497451	40.55941561443531	19.51442106444027	-8.8117167669438	0.02635958919541654	44.90358781392637	0	0	0	-11.58325503623762	0	76.10508902513379	44.90358781392637	0	0
5.15	0.870394934596264	-0.3360657739870267	152.0528337466802	0	0.9399999999999999	0	43.8179141942702	-10.04103964418253	0	59.9633967903364	1.04655870467117	-4.982064161261774	0	0	43.8179141942702	-10.04103964418253	0	59.9633967903364	1.04655870467117	-4.982064161261774	0	0	9.897394288324914	-7.639418244770408	-8.418189326590481	42.32583351241306	16.71926002888028	-3.119848826431239	0.01591856974942844	44.90460506631307	0	0	0	-11.59373133417314	0	76.0994863441131	44.90460506631307	0	0
5.16	0.8751759979396592	-0.3337020253229599	152.0639751857536	0	0.9399999999999999	0	43.81834597600105	-10.04098714931295	0	59.96340730000338	1.046558888099462	-4.982094101043785	0	0	43.81834597600105	-10.04098714931295	0	59.96340730000338	1.046558888099462	-4.982094101043785	0	0	9.896732329810233	-7.634235387049139	-8.416786761861042	43.9797832724992	15.93114391301656	-4.00443125552061	0.0152005052438948	44.90470154842753	0	0	0	-11.5943678495115	0	76.09908481312482	44.90470154842753	0	0
5.17	0.8768164088331292	-0.3464117519889903	152.069884490271	0	0.9399999999999999	0	43.82458461662382	-10.04044516991987	0	59.96359712899285	1.046562201240344	-4.982381233507725	0	0	43.82458461662382	-10.04044516991987	0	59.96359712899285	1.046562201240344	-4.982381233507725	0	0	9.896144065382192	-7.644265906592318	-8.423822567480045	45.28795404174897	16.78373856215245	-14.23810372621893	0.03284893638371878	44.90576450956507	0	0	0	-11.60516480675229	0	76.09328314784577	44.90576450956507	0	0
5.18	0.8737627886457179	-0.3498281450505367	152.0723899144864	0	0.9399999999999999	0	43.8402016992093	-10.0391425827254	0	59.96408049938476	1.04657063764519	-4.983063317798991	0	0	43.8402016992093	-10.0391425827254	0	59.96408049938476	1.04657063764519	-4.983063317798991	0	0	9.861023707231757	-7.679245420354694	-8.400942775857809	40.78672734967325	18.54543060069888	-24.59743632011636	7.277894122046756	44.90834309219358	0	0	0	-11.6325825846024	0	76.07875991256574	44.90834309219358	0	0
5.19	0.8933506034868915	-0.3594805715510178	152.0736331717729	0	0.9399999999999999	0	43.85415175272468	-10.03801013758126	0	59.96451198299631	1.04657816845488	-4.983650532981391	0	0	43.85415175272468	-10.03801013758126	0	59.96451198299631	1.04657816845488	-4.983650532981391	0	0	9.919932877308252	-7.632817479671227	-8.415336969434071	37.62998565172735	20.93395297058276	-28.91095198537937	13.66111729713366	44.9106010728916	0	0	0	-11.65723532059539	0	76.06578693441662	44.9106010728916	0	0
5.2	0.8902359259924144	-0.3623340195690248	152.0660745715189	0	0.9399999999999999	0	43.85689765525533	-10.03777537176928	0	59.96459458387616	1.046579610112198	-4.983774038715641	0	0	43.85689765525533	-10.03777537176928	0	59.96459458387616	1.046579610112198	-4.983774038715641	0	0	9.914940252142809	-7.64119022933459	-8.396975861527419	38.4400622862787	21.80278118338665	-30.91903993415096	14.08386346582178	44.91106372272304	0	0	0	-11.66199949983777	0	76.06323336306527	44.91106372272304	0	0
5.21	0.9048835532122748	-0.3721972891645923	152.0787365091043	0	0.9399999999999999	0	43.87639342886496	-10.0361923280771	0	59.96518815243653	1.046589969837913	-4.984592164635642	0	0	43.87639342886496	-10.0361923280771	0	59.96518815243653	1.046589969837913	-4.984592164635642	0	0	9.928620485945888	-7.656846992206634	-8.390499008394091	32.59639039649481	21.70795475941613	-34.26932234564703	23.08820861238936	44.91422503669644	0	0	0	-11.69630630779915	0	76.04510310047573	44.91422503669644	0	0
